<?xml version="1.0" encoding="UTF-8"?>
<!DOCTYPE svg PUBLIC "-//W3C//DTD SVG 1.1//EN" "http://www.w3.org/Graphics/SVG/1.1/DTD/svg11.dtd">
<!-- Creator: CorelDRAW X6 -->
<svg xmlns="http://www.w3.org/2000/svg" xml:space="preserve" width="220mm" height="220mm" version="1.1" style="shape-rendering:geometricPrecision; text-rendering:geometricPrecision; image-rendering:optimizeQuality; fill-rule:evenodd; clip-rule:evenodd"
viewBox="0 0 22000 22000"
 xmlns:xlink="http://www.w3.org/1999/xlink">
 <defs>
  <style type="text/css">
   <![CDATA[
    .str0 {stroke:#6E43D9;stroke-width:7.62}
    .fil1 {fill:none}
    .fil0 {fill:#FEFEFE}
    .fil5 {fill:#382666}
    .fil4 {fill:#6E43D9}
    .fil3 {fill:#7344EB}
    .fil2 {fill:#382666;fill-rule:nonzero}
   ]]>
  </style>
 </defs>
 <g id="Capa_x0020_1">
  <metadata id="CorelCorpID_0Corel-Layer"/>
  <circle class="fil0" cx="11000" cy="11000" r="11000"/>
  <path class="fil1" d="M11000 21036c5523,0 10000,-4477 10000,-10000 0,-5523 -4477,-10000 -10000,-10000 -5523,0 -10000,4477 -10000,10000 0,5523 4477,10000 10000,10000z"/>
  <path class="fil2" d="M1659 7376l202 91c-35,30 -64,64 -88,100 -24,36 -43,75 -57,118 -33,100 -30,189 9,267 39,78 107,133 205,165 99,32 187,28 265,-14 78,-41 134,-112 166,-212 13,-39 21,-81 25,-126 4,-44 3,-90 -3,-138l230 57c-2,52 -8,103 -17,153 -9,50 -22,99 -37,148 -59,182 -152,308 -278,379 -126,71 -273,79 -440,25 -159,-52 -269,-143 -330,-274 -61,-131 -63,-281 -7,-453 19,-57 41,-110 67,-158 26,-48 55,-91 88,-129zm476 -680c-34,64 -33,131 2,199 35,68 98,126 191,175 93,49 178,68 254,58 76,-10 131,-47 165,-112 34,-65 33,-130 -2,-198 -35,-68 -99,-126 -193,-175 -92,-48 -176,-68 -252,-58 -76,10 -130,46 -164,110zm-181 -95c76,-145 178,-235 308,-272 129,-36 270,-14 423,66 154,80 252,184 295,310 43,127 27,262 -49,407 -76,146 -179,237 -308,274 -129,37 -270,15 -424,-65 -153,-80 -251,-184 -295,-311 -43,-127 -27,-264 49,-409zm396 -727l247 -350 628 207c25,8 52,20 80,34 28,14 58,31 89,50 -30,-25 -57,-50 -80,-73 -24,-23 -43,-45 -58,-64l-401 -518 243 -345 861 606 -152 216 -578 -407c-27,-19 -55,-40 -84,-63 -28,-22 -58,-47 -89,-74 22,24 42,47 62,70 19,23 37,45 53,67l480 628 -145 206 -740 -238c-26,-8 -53,-18 -83,-31 -30,-12 -61,-26 -93,-40 43,26 81,49 115,70 34,21 59,38 75,49l574 405 -142 201 -861 -606zm968 -1342l194 -202 442 425c65,62 121,98 168,106 47,8 91,-9 132,-51 42,-43 58,-91 48,-143 -10,-52 -45,-107 -105,-165l-442 -425 185 -193 442 425c112,107 170,215 173,322 4,107 -46,215 -150,323 -103,107 -209,161 -317,161 -108,0 -218,-53 -329,-159l-442 -425zm832 -850l263 -231 645 274c22,9 50,23 86,43 35,19 77,44 126,74 -41,-33 -77,-64 -109,-94 -32,-30 -60,-58 -83,-86l-393 -449 191 -167 694 792 -262 230 -669 -284c-31,-13 -63,-28 -95,-47 -32,-18 -66,-40 -101,-64 49,41 92,79 130,116 38,36 70,70 97,100l366 418 -191 167 -694 -792zm987 -805l229 -162 609 859 -229 162 -609 -859zm827 -298l317 554 105 -60c86,-49 138,-111 157,-186 19,-75 3,-157 -48,-247 -50,-88 -114,-142 -190,-162 -76,-20 -159,-4 -249,48l-93 53zm-346 -36l320 -183c83,-48 156,-83 219,-104 62,-22 117,-32 166,-30 91,4 172,29 243,75 71,46 131,111 180,197 54,94 82,185 85,271 2,86 -20,171 -68,255 -24,41 -62,83 -112,124 -51,42 -123,89 -218,144l-290 166 -523 -914zm1639 -580l16 417 250 -97 -266 -320zm-237 -160l316 -122 752 837 -280 109 -150 -181 -378 146 7 236 -259 100 -9 -1126zm1163 -201l177 614 117 -34c95,-27 160,-75 197,-144 36,-69 40,-152 12,-251 -28,-98 -77,-165 -146,-203 -69,-37 -154,-41 -254,-13l-103 29zm-327 -117l354 -102c92,-27 172,-43 237,-49 66,-6 122,-3 168,10 87,26 160,69 218,130 58,61 101,139 128,234 30,104 36,199 18,283 -18,84 -60,162 -127,231 -33,34 -79,66 -139,94 -59,28 -141,57 -246,88l-321 92 -291 -1012zm1231 -313l721 -124 34 194 -444 77 36 209 419 -72 34 197 -419 72 41 236 460 -79 35 200 -737 127 -179 -1037zm1714 -184l-4 218c-44,-15 -86,-26 -126,-32 -40,-6 -79,-8 -115,-5 -57,4 -100,17 -131,37 -30,20 -44,46 -42,78 2,22 11,41 29,56 18,15 43,27 76,36 11,3 27,6 48,11 123,30 205,58 247,85 39,26 69,56 89,91 20,35 32,78 36,127 9,116 -23,207 -95,273 -72,67 -181,106 -327,117 -52,4 -106,4 -159,1 -54,-3 -107,-10 -160,-21l6 -236c51,18 100,32 147,40 48,8 92,11 133,7 55,-4 98,-18 128,-41 30,-23 44,-52 42,-88 -3,-44 -58,-80 -162,-107 -25,-6 -45,-12 -58,-16 -103,-28 -177,-65 -224,-109 -46,-44 -73,-104 -78,-177 -8,-105 23,-189 94,-252 71,-62 177,-99 318,-110 52,-4 102,-5 150,-2 48,2 95,9 140,18zm896 7l278 37 -81 608c-12,89 -7,155 14,198 21,43 61,69 119,76 60,8 108,-7 144,-46 36,-39 60,-99 71,-183l81 -608 265 35 -81 608c-20,154 -73,264 -157,331 -84,67 -201,90 -349,70 -147,-20 -253,-73 -318,-160 -64,-87 -87,-207 -66,-359l81 -608zm1187 164l341 79 155 684c5,23 10,54 15,94 5,40 9,88 14,146 3,-53 7,-100 13,-144 6,-43 13,-82 21,-118l134 -581 247 57 -237 1026 -340 -78 -161 -709c-8,-33 -14,-68 -18,-105 -4,-37 -6,-77 -7,-120 -5,63 -10,121 -18,173 -7,52 -15,98 -24,137l-125 541 -247 -57 237 -1026zm1771 502l319 144 18 701c1,24 -1,55 -3,96 -3,40 -8,88 -15,145 13,-51 27,-97 41,-138 14,-41 28,-78 43,-111l246 -544 231 104 -433 959 -318 -144 -19 -727c-1,-34 0,-69 3,-106 3,-37 9,-77 17,-119 -17,61 -34,117 -51,167 -17,50 -34,93 -51,129l-229 506 -231 -104 433 -959zm1200 554l236 152 -332 515c-49,75 -73,137 -72,185 1,48 26,88 75,120 51,33 100,39 149,20 49,-20 96,-64 142,-135l332 -515 224 145 -332 515c-84,130 -178,207 -283,232 -104,24 -220,-4 -346,-85 -125,-81 -198,-174 -219,-280 -21,-106 10,-224 94,-353l332 -515zm1004 650l575 451 -122 155 -355 -278 -131 167 334 262 -124 158 -334 -262 -148 189 368 288 -125 160 -589 -461 650 -828zm743 584l211 203 -398 754 735 -430 207 199 -987 512 -254 -244 485 -994zm1071 1382c-45,-57 -105,-84 -182,-80 -76,4 -156,38 -238,102 -83,65 -135,134 -157,207 -22,73 -11,139 34,196 45,57 105,84 181,79 76,-4 155,-39 239,-104 82,-64 134,-133 157,-206 22,-73 11,-138 -33,-195zm161 -126c101,129 141,259 121,392 -20,132 -98,252 -234,359 -136,107 -271,154 -404,142 -133,-13 -250,-83 -351,-212 -101,-129 -142,-260 -123,-393 19,-132 97,-252 234,-359 136,-107 271,-154 405,-141 134,13 252,84 353,212zm698 1428l-554 317 60 105c49,86 111,138 186,157 75,19 157,3 247,-48 88,-50 142,-114 162,-190 20,-76 4,-159 -48,-249l-53 -93zm36 -346l183 320c48,83 83,156 104,219 22,62 32,117 30,166 -4,91 -29,172 -75,243 -46,71 -111,131 -197,180 -94,54 -185,82 -271,85 -86,2 -171,-20 -255,-68 -41,-24 -83,-62 -124,-112 -42,-51 -89,-123 -144,-218l-166 -290 914 -523zm585 1107l117 255 -958 437 -117 -255 958 -437zm151 1028l-418 -1 87 254 331 -253zm169 -231l110 320 -867 718 -97 -284 187 -143 -131 -383 -236 -2 -90 -263 1125 37z"/>
  <path class="fil3" d="M15778 10888l254 55c289,-2140 26,-3014 -1457,-4646 642,938 802,1169 904,1363 554,953 337,2759 299,3229z"/>
  <path class="fil4 str0" d="M2204 14600c57,-65 -72,45 576,-620 324,-332 2230,-1713 2277,-2104 51,-425 91,-68 -275,-803 -423,-848 -501,-1654 -424,-2112 129,-764 869,-1409 1813,-1636 432,-104 1028,-111 1386,30 357,141 567,195 500,279 -67,84 -21,159 207,259 228,100 364,243 417,415 53,172 278,236 225,515 -53,279 -213,299 -213,299 -34,345 -102,706 -198,961 -33,87 -5,190 -56,572 -23,175 -217,637 -273,756 -73,156 -289,666 -388,651 -371,-57 -375,-41 -494,444 -58,237 -212,455 196,795 408,341 2506,771 2721,2678 215,1906 90,3043 90,3043 0,0 -300,-34 -732,-109 0,0 3,-118 3,-118 0,0 161,-1425 98,-2709 -72,-1471 -1154,-2045 -2151,-2448 -625,-253 -856,-646 -736,-1100 354,-1338 666,-410 826,-864 224,-634 346,-1375 352,-1759 3,-160 -33,-275 3,-490 17,-101 100,-276 161,-410 190,-421 -747,-1051 -1336,-1077 -589,-25 -1107,-27 -1698,297 -847,464 -413,2159 -88,2792 92,179 490,649 149,1131 -371,523 -1876,1627 -2358,2074 -542,503 -221,201 -477,467 0,0 -37,70 -104,-100z"/>
  <path class="fil3" d="M20119 12691c460,248 436,122 358,551 -335,81 -252,-5 -485,-237 -591,999 -796,651 -1663,260 -263,189 -288,303 -564,464 -476,-149 -1035,-439 -1533,-630 -1648,-630 -3445,-926 -5214,-985 2159,379 4561,821 5860,2024 -819,-294 -1663,-758 -2629,-1087 -2075,-709 -4618,-771 -6776,-456 26,-38 24,-141 89,-186 383,-264 303,259 763,-733l1052 -175c-266,-23 -658,2 -1025,11 165,-325 274,-706 274,-706 235,-41 1104,-155 2573,-116 932,25 1855,62 2777,190 2108,291 4275,804 6143,1812z"/>
  <path class="fil3" d="M4898 11965c-600,99 -2729,702 -3565,1152 968,-925 2508,-1393 3463,-1667 76,62 131,118 142,219 5,40 -30,247 -40,296z"/>
  <path class="fil3" d="M8666 10596c0,0 71,-360 84,-454 13,-93 24,-106 44,-314 21,-208 62,-444 62,-444 0,0 281,-296 295,-532 14,-236 -97,-405 -238,-570 -141,-165 -115,-397 -281,-476 -166,-79 -329,-232 -329,-232 0,0 447,-679 856,-1034 409,-356 629,-485 909,-596 281,-112 376,-101 376,-101l315 -227c-822,57 -1715,645 -2228,1292 -202,254 -335,481 -335,481 -87,-80 -85,-47 -115,-93 0,0 369,-598 700,-899 410,-373 1062,-843 1598,-998 400,-115 817,-252 1723,-130 1691,228 2879,1804 3316,3166 320,996 101,2441 101,2441 -1995,-388 -5038,-539 -6856,-279zm237 -223c44,-234 144,-561 165,-724 44,-356 363,-475 340,-855 -23,-395 -478,-1006 -603,-1133 -79,-80 -308,-102 -276,-142 1399,-1768 4038,-2315 5267,-149 603,1063 206,2643 206,2643 -249,-17 -1931,-231 -5099,360z"/>
  <path class="fil3" d="M8011 7203l-279 -121c629,-978 1424,-1544 2501,-1858 470,-137 796,-117 796,-117 -1389,369 -2353,904 -3019,2096z"/>
  <path class="fil1" d="M10977 20159c5058,0 9159,-4101 9159,-9159 0,-5058 -4101,-9159 -9159,-9159 -5058,0 -9159,4101 -9159,9159 0,5058 4101,9159 9159,9159z"/>
  <path class="fil2" d="M4057 16730l-193 108c-4,-46 -13,-89 -28,-130 -15,-41 -35,-79 -61,-116 -61,-86 -135,-136 -220,-151 -86,-15 -171,7 -255,67 -84,60 -133,134 -146,221 -13,87 11,174 72,260 24,34 53,65 86,95 33,29 71,56 113,80l-182 151c-41,-33 -78,-68 -113,-105 -35,-37 -67,-76 -97,-118 -111,-156 -157,-305 -139,-449 18,-144 98,-267 241,-368 136,-97 275,-131 416,-103 141,29 264,116 368,263 35,49 64,98 88,148 24,50 41,99 52,147zm81 38l506 528 -142 136 -311 -326 -153 147 294 307 -145 138 -294 -307 -173 166 323 338 -147 141 -517 -540 761 -728zm606 648l265 228 -180 678c-6,23 -16,53 -30,91 -14,38 -33,83 -56,135 27,-45 53,-86 78,-121 25,-36 49,-67 73,-95l389 -452 192 165 -687 798 -264 -228 187 -702c8,-33 19,-66 33,-101 14,-35 30,-71 49,-109 -33,54 -65,102 -96,145 -31,43 -59,80 -85,110l-362 421 -192 -165 687 -798zm802 678l652 467 -123 171 -212 -152 -490 685 -228 -163 490 -685 -212 -152 123 -171zm871 800l-136 234 85 49c52,30 97,44 135,40 37,-4 67,-25 89,-63 24,-41 27,-80 9,-116 -18,-36 -59,-73 -122,-109l-60 -35zm-145 -298l362 210c121,70 199,141 235,214 36,73 30,149 -16,229 -34,59 -78,99 -131,119 -53,20 -112,20 -178,-1 38,45 47,117 29,216l0 1 -66 365 -253 -147 65 -296c10,-48 9,-85 -4,-114 -13,-28 -44,-56 -91,-83l-35 -20 -206 356 -237 -138 528 -911zm1162 798c-68,-26 -133,-18 -197,24 -64,42 -115,112 -153,209 -38,98 -48,184 -30,259 18,74 61,125 129,151 68,26 133,18 196,-24 63,-42 114,-113 152,-211 38,-97 48,-183 30,-257 -18,-74 -61,-125 -128,-151zm74 -191c152,59 254,151 304,276 50,124 44,267 -18,428 -63,162 -155,271 -276,328 -121,57 -258,56 -410,-3 -153,-60 -255,-151 -306,-275 -51,-124 -45,-267 18,-428 63,-161 155,-270 276,-327 122,-57 259,-56 412,3zm1220 650l-144 622 118 27c96,22 177,12 242,-30 65,-42 109,-113 132,-214 23,-99 13,-182 -29,-248 -42,-66 -114,-111 -216,-134l-104 -24zm-229 -262l359 83c94,22 171,46 231,72 61,26 108,56 142,90 64,65 106,138 127,220 21,82 21,171 -2,267 -24,106 -65,191 -122,256 -57,65 -131,112 -223,141 -46,14 -101,19 -167,15 -66,-4 -151,-18 -258,-43l-325 -75 237 -1026zm1082 233l726 89 -24 196 -447 -55 -26 211 422 52 -24 199 -422 -52 -29 238 464 57 -25 202 -742 -91 128 -1045zm1733 332l-125 398 268 -8 -143 -391zm-170 -230l338 -10 429 1041 -300 9 -81 -221 -405 12 -72 225 -277 8 368 -1064zm1018 141l115 628 119 -22c97,-18 167,-59 210,-124 43,-65 55,-147 37,-249 -18,-100 -60,-172 -125,-216 -65,-44 -149,-56 -251,-38l-105 19zm-314 -149l363 -66c95,-17 175,-26 241,-26 66,0 121,9 166,26 84,34 152,85 204,151 52,67 87,148 104,246 20,107 16,201 -10,284 -26,82 -76,155 -149,218 -37,31 -86,58 -147,80 -62,22 -146,43 -254,63l-329 60 -190 -1036zm1146 -221l273 -64 238 1025 -273 64 -238 -1025zm1268 -346l47 216c-45,-10 -89,-13 -133,-11 -43,2 -86,11 -128,25 -100,33 -169,89 -209,167 -39,78 -43,166 -10,263 33,98 89,166 169,204 80,38 170,40 270,7 39,-13 78,-32 116,-55 38,-23 74,-52 109,-85l91 218c-43,29 -88,55 -133,78 -46,22 -93,42 -141,58 -181,61 -338,62 -470,3 -132,-59 -226,-172 -282,-338 -53,-159 -46,-301 23,-428 68,-127 188,-219 359,-276 57,-19 113,-33 167,-41 54,-8 106,-10 156,-6zm909 -411l68 211c-46,-5 -90,-5 -133,2 -43,7 -85,19 -125,37 -96,43 -160,105 -191,187 -32,81 -26,169 16,263 42,95 105,157 188,187 83,30 173,23 269,-20 38,-17 74,-39 110,-66 35,-27 69,-59 101,-95l112 208c-40,33 -82,63 -125,90 -43,27 -88,51 -135,72 -174,78 -330,94 -467,49 -138,-46 -242,-149 -314,-309 -69,-153 -75,-295 -19,-428 56,-133 166,-236 330,-310 55,-25 109,-44 162,-57 53,-13 105,-21 155,-22zm88 -100l243 -140 526 912 -243 140 -526 -912zm893 -345c-59,42 -88,102 -88,178 0,77 31,157 91,242 61,86 128,141 200,167 72,26 138,17 197,-25 59,-42 88,-101 87,-177 -1,-76 -32,-157 -93,-243 -60,-85 -127,-140 -199,-166 -72,-26 -137,-18 -196,24zm-119 -167c133,-95 266,-129 397,-103 131,26 247,109 348,250 101,141 142,278 123,410 -19,133 -95,246 -228,341 -134,95 -267,130 -398,105 -131,-25 -248,-109 -348,-250 -100,-141 -141,-278 -122,-411 19,-133 95,-247 228,-343zm538 -360l264 -230 644 277c22,9 50,24 85,43 35,19 77,44 126,75 -41,-33 -77,-65 -109,-95 -32,-30 -59,-59 -83,-86l-391 -450 191 -166 690 795 -263 229 -668 -287c-31,-13 -63,-29 -95,-47 -32,-19 -66,-40 -101,-65 49,41 92,80 130,116 38,37 70,70 96,100l364 420 -191 166 -690 -795zm804 -722l480 -552 149 129 -296 340 160 139 279 -321 151 131 -279 321 181 157 307 -353 153 133 -491 564 -795 -691zm1006 -1228l165 143c-40,24 -75,50 -105,77 -30,27 -56,55 -78,85 -33,46 -51,88 -55,124 -4,36 7,64 33,82 18,13 39,18 61,14 23,-4 48,-15 76,-36 9,-7 22,-17 39,-29 102,-75 176,-120 224,-135 45,-14 87,-17 127,-9 40,7 80,25 120,54 94,68 144,150 149,249 5,98 -35,207 -120,325 -31,43 -65,84 -101,123 -37,39 -77,75 -119,109l-177 -156c47,-27 89,-56 125,-87 37,-31 67,-64 91,-97 32,-45 49,-86 51,-125 2,-38 -12,-67 -41,-88 -36,-26 -98,-7 -187,56 -21,15 -38,27 -49,35 -88,61 -163,94 -227,102 -64,7 -126,-11 -186,-54 -86,-62 -130,-139 -132,-234 -2,-95 38,-199 120,-314 30,-42 62,-81 95,-116 33,-36 68,-67 104,-96z"/>
  <path class="fil5" d="M20427 9986c161,0 291,-130 291,-291 0,-161 -130,-291 -291,-291 -161,0 -291,130 -291,291 0,161 130,291 291,291z"/>
  <path class="fil5" d="M1491 9986c161,0 291,-130 291,-291 0,-161 -130,-291 -291,-291 -161,0 -291,130 -291,291 0,161 130,291 291,291z"/>
  <path class="fil5" d="M2530 16079c161,0 291,-130 291,-291 0,-161 -130,-291 -291,-291 -161,0 -291,130 -291,291 0,161 130,291 291,291z"/>
  <path class="fil5" d="M19295 16051c161,0 291,-130 291,-291 0,-161 -130,-291 -291,-291 -161,0 -291,130 -291,291 0,161 130,291 291,291z"/>
 </g>
</svg>
